<svg height="512" viewBox="0 0 512 512" width="512" xmlns="http://www.w3.org/2000/svg"><g id="Flat"><path d="m288 176h-16v-96a64.072 64.072 0 0 1 64-64v16a48.054 48.054 0 0 0 -48 48z" fill="#b43900"/><path d="m240 176h-16v-96a48.054 48.054 0 0 0 -48-48v-16a64.072 64.072 0 0 1 64 64z" fill="#b43900"/><path d="m216 416-40.18 10.045a31.447 31.447 0 0 0 -23.82 30.508 31.447 31.447 0 0 0 31.447 31.447h145.106a31.447 31.447 0 0 0 31.447-31.447 31.447 31.447 0 0 0 -23.82-30.508l-40.18-10.045" fill="#b43900"/><path d="m216 416-23.716 23.716a28.284 28.284 0 0 0 -8.284 20 28.284 28.284 0 0 0 28.284 28.284h87.432a28.284 28.284 0 0 0 28.284-28.284 28.284 28.284 0 0 0 -8.284-20l-23.716-23.716z" fill="#c64005"/><g fill="#b43900"><path d="m368 320h-32a8 8 0 0 1 -5.657-2.343l-48-48 11.314-11.314 45.656 45.657h25.374l37.656-37.657 11.314 11.314-40 40a8 8 0 0 1 -5.657 2.343z"/><path d="m368 360h-32a8 8 0 0 1 -5.657-2.343l-48-48 11.314-11.314 45.656 45.657h25.374l37.656-37.657 11.314 11.314-40 40a8 8 0 0 1 -5.657 2.343z"/><path d="m368 400h-40a8 8 0 0 1 -6.146-2.878l-40-48 12.292-10.244 37.601 45.122h32.94l37.656-37.657 11.314 11.314-40 40a8 8 0 0 1 -5.657 2.343z"/><path d="m176 320h-32a8 8 0 0 1 -5.657-2.343l-40-40 11.314-11.314 37.656 37.657h25.374l45.656-45.657 11.314 11.314-48 48a8 8 0 0 1 -5.657 2.343z"/><path d="m176 360h-32a8 8 0 0 1 -5.657-2.343l-40-40 11.314-11.314 37.656 37.657h25.374l45.656-45.657 11.314 11.314-48 48a8 8 0 0 1 -5.657 2.343z"/><path d="m184 400h-40a8 8 0 0 1 -5.657-2.343l-40-40 11.314-11.314 37.656 37.657h32.94l37.6-45.122 12.292 10.244-40 48a8 8 0 0 1 -6.145 2.878z"/></g><path d="m384 248a68.322 68.322 0 0 0 52.486-24.583l19.514-23.417h-72z" fill="#d44808"/><path d="m384 200h-88a48 48 0 0 0 48 48h40z" fill="#db5010"/><path d="m368 40v24l40 40-40 24-21.466-42.932a24.009 24.009 0 0 1 -2.534-10.734v-10.334a24 24 0 0 1 24-24z" fill="#c64005"/><path d="m384 200h72l17.029-21.286a68.323 68.323 0 0 0 14.971-42.68v-48.034a64 64 0 0 0 -64-64h-32l16 16v64l-40 24v19.156a95.263 95.263 0 0 0 16 52.844z" fill="#e05114"/><path d="m128 248a68.322 68.322 0 0 1 -52.486-24.583l-19.514-23.417h72z" fill="#d44808"/><path d="m128 200h88a48 48 0 0 1 -48 48h-40z" fill="#db5010"/><path d="m104 24v72l40 32v-64a40 40 0 0 0 -40-40z" fill="#c64005"/><path d="m128 200h-72l-17.029-21.286a68.323 68.323 0 0 1 -14.971-42.68v-48.034a64 64 0 0 1 64-64h32l-16 16v56l40 32v19.156a95.263 95.263 0 0 1 -16 52.844z" fill="#e05114"/><path d="m312 220.62v22.54a95.132 95.132 0 0 1 -9.04 40.48 92.852 92.852 0 0 1 -6.96 12.36l-16-16h-48l-16 16a92.852 92.852 0 0 1 -6.96-12.36 95.132 95.132 0 0 1 -9.04-40.48v-22.54a95.282 95.282 0 0 1 34.28-73.19l13.72-11.43 8-16 8 16 13.72 11.43a95.282 95.282 0 0 1 34.28 73.19z" fill="#e05114"/><path d="m416 160h16v16h-16z" fill="#d14809"/><path d="m400 128h16v16h-16z" fill="#d14809"/><path d="m448 88h16v16h-16z" fill="#d14809"/><path d="m80 160h16v16h-16z" fill="#d14809"/><path d="m96 128h16v16h-16z" fill="#d14809"/><path d="m48 120h16v16h-16z" fill="#d14809"/><path d="m296 296v120l-24 24h-32l-24-24v-120l16-16h48z" fill="#e05114"/><path d="m248.7 190.836-13.472-8.631a71.326 71.326 0 0 1 9.521-11.852l11.334 11.293a55.361 55.361 0 0 0 -7.383 9.19z" fill="#e46526"/><path d="m240 232h-16v-11.379a71.231 71.231 0 0 1 3.874-23.224l15.126 5.203a55.276 55.276 0 0 0 -3 18.018z" fill="#e46526"/><path d="m216 416v32a40 40 0 0 0 40 40 40 40 0 0 0 40-40v-32l-24 24h-32z" fill="#d14809"/><path d="m232 296h16v128h-16z" fill="#e46526"/><path d="m296 319.67v16.88l-25.31-8.55h-29.33l-25.36 8.87v-16.94l21.36-7.48a7.918 7.918 0 0 1 2.64-.45h32a7.941 7.941 0 0 1 2.56.42z" fill="#d14809"/><path d="m302.96 283.64a92.852 92.852 0 0 1 -6.96 12.36v3.31l-19.31-19.31h-41.38l-19.31 19.31v-3.31a92.852 92.852 0 0 1 -6.96-12.36l17.3-17.3a8.008 8.008 0 0 1 5.66-2.34h48a8.008 8.008 0 0 1 5.66 2.34z" fill="#d14809"/><path d="m296 383.62v16.86l-21.48 7.11a8.059 8.059 0 0 1 -2.52.41h-32a7.881 7.881 0 0 1 -2.55-.42l-21.45-7.21v-16.89l25.31 8.52h29.4z" fill="#d14809"/><path d="m216 352h80v16h-80z" fill="#d14809"/></g></svg>