<svg id="filled_outline" height="512" viewBox="0 0 512 512" width="512" xmlns="http://www.w3.org/2000/svg" data-name="filled outline"><path d="m216 336v-20.1178a125.2547 125.2547 0 0 0 -36.68625-88.56845 38.62739 38.62739 0 0 0 -27.31375-11.31375 38.62739 38.62739 0 0 0 -27.31368 11.3137h-.00005a125.2547 125.2547 0 0 0 -36.68627 88.5685v20.1178z" fill="#c7894c"/><path d="m192 368h176v48h-176z" fill="#de9400"/><path d="m216 368-24 96h-80l-24-96z" fill="#eda600"/><path d="m336 336v-1.518a128.38544 128.38544 0 0 0 -29.757-82.19037v-.00005a34.16064 34.16064 0 0 0 -26.243-12.29158 34.16064 34.16064 0 0 0 -26.24292 12.29153v.00005a128.38544 128.38544 0 0 0 -29.75708 82.19042v1.518z" fill="#e6a565"/><path d="m472 336v-20.1178a125.2547 125.2547 0 0 0 -36.68625-88.56845h-.00005a38.62739 38.62739 0 0 0 -27.3137-11.31375 38.62739 38.62739 0 0 0 -27.31368 11.3137h-.00005a125.2547 125.2547 0 0 0 -36.68627 88.5685v20.1178z" fill="#f5b97d"/><path d="m232 416 16 32h64l16-32z" fill="#cf8300"/><path d="m56 336 208-256-22.51-15.01-13.37-8.91-12.12-8.08-96 24-96 136v160h464v-32z" fill="#f6bb00"/><path d="m472 368-24 96h-80l-24-96z" fill="#eda600"/><path d="m488 328h-8v-12.11816a132.38567 132.38567 0 0 0 -39.0293-94.22559 46.62921 46.62921 0 0 0 -65.9414 0 132.27273 132.27273 0 0 0 -37.22681 72.24023 136.494 136.494 0 0 0 -25.41284-46.72558 42.161 42.161 0 0 0 -64.77832-.001 136.49576 136.49576 0 0 0 -25.41358 46.72681 132.27452 132.27452 0 0 0 -37.22705-72.24048 46.53558 46.53558 0 0 0 -16.96582-10.82178l102.20412-125.78953a7.99945 7.99945 0 0 0 -1.77148-11.70117l-48-32a7.99621 7.99621 0 0 0 -6.37793-1.10449l-96 24a7.99822 7.99822 0 0 0 -4.5957 3.14746l-96 136a8.00266 8.00266 0 0 0 -1.46389 4.61328v160a8.00039 8.00039 0 0 0 8 8h57.75415l22.48511 89.94043a7.99866 7.99866 0 0 0 7.76074 6.05957h80a7.99866 7.99866 0 0 0 7.76074-6.05957l10.48511-41.94043h16.80981l13.78907 27.57812a8.00022 8.00022 0 0 0 7.15527 4.42188h64a8.00022 8.00022 0 0 0 7.15527-4.42188l13.78907-27.57812h16.80981l10.48511 41.94043a7.99866 7.99866 0 0 0 7.76074 6.05957h80a7.99866 7.99866 0 0 0 7.76074-6.05957l22.48511-89.94043h9.75415a8.00039 8.00039 0 0 0 8-8v-32a8.00039 8.00039 0 0 0 -8-8zm-101.65625-95.0293a30.62563 30.62563 0 0 1 43.3125 0 116.48357 116.48357 0 0 1 34.34375 82.91114v12.11816h-112v-12.11816a116.48357 116.48357 0 0 1 34.34375-82.91114zm-126.44043 24.44239a26.16051 26.16051 0 0 1 40.19434 0 120.63234 120.63234 0 0 1 27.71948 70.58691h-95.63428a120.627 120.627 0 0 1 27.72046-70.58691zm-86.24707-24.44239a116.48357 116.48357 0 0 1 34.34375 82.91114v12.11816h-112v-12.11816a117.61676 117.61676 0 0 1 1.41675-18.16968l59.55639-73.3a30.51359 30.51359 0 0 1 16.68311 8.55854zm-141.65625-22.43164 92.82227-131.49806 89.68457-22.42188 8.55761 5.70508-133.28222 164.6426 12.43554 10.0664 134.21582-165.79614 15.81348 10.54224-202.45607 249.17578.00195.00171a7.96438 7.96438 0 0 0 -1.79295 5.04321v24h-16zm153.75391 245.46094h-67.50782l-20.00024-80h107.5083zm121.30175-16h-54.11132l-8-16h70.11132zm-92.80981-32 8-32h115.5083l8 32zm227.50806 48h-67.50782l-20.00024-80h107.5083zm38.24609-96h-416v-16h416z"/></svg>