<svg height="512pt" viewBox="-45 0 512 512.0018" width="512pt" xmlns="http://www.w3.org/2000/svg"><path d="m394.988281 7.003906c-2 0-3.988281.25-5.917969.742188-7.910156 2.027344-15.382812 7.886718-21.042968 16.5-4.9375 7.527344-8.117188 16.253906-11.191406 24.695312l-.410157 1.121094c-8.28125 22.679688-17.34375 45.40625-26.933593 67.558594-13.726563 31.71875-29.136719 63.546875-45.8125 94.601562l-.179688.335938-.089844.371094c-.085937.34375-.246094.644531-.480468.894531l-.261719.28125-.183594.339843c-4.304687 7.96875-7.640625 14.035157-10.824219 19.675782-10.089844 17.925781-21.082031 36.300781-33.59375 56.152344l-.578125.90625c-1.851562 2.921874-3.433593 5.488281-4.046875 7.3125l-.972656 2.875 2.886719.941406c.800781.257812 1.796875.457031 2.996093.589844 1.648438.164062 7.636719.183593 10.132813.183593 5.71875 0 13.921875-.085937 18.21875-.332031l1.9375-.113281.691406-1.808594c20.851563-54.316406 48.308594-106.039063 81.609375-153.738281 4.003906-5.738282 8.1875-11.542969 12.226563-17.152344l.304687-.421875c19.410156-26.976563 39.484375-54.871094 49.335938-86.714844 3.78125-12.230469 3.660156-20.851562-.382813-27.128906-3.4375-5.347656-10.117187-8.667969-17.4375-8.667969zm0 0" fill="#bfc7d8"/><path d="m369.355469 289.261719-5.175781 6.707031c-2.886719 3.742188-6.355469 7.167969-10.304688 10.179688-10.300781 7.847656-22.734375 12.371093-34.636719 16.089843-42.082031 13.164063-87.4375 19.835938-134.8125 19.835938-42.410156 0-86.121093-5.371094-129.914062-15.964844-11.164063-2.710937-22.898438-5.910156-32.851563-12.550781-3.273437-2.1875-6.242187-4.742188-8.832031-7.601563l-5.089844-5.617187-.132812 7.578125c-.386719 22.136719-.121094 45.855469 4.394531 69.320312 6.65625 34.628907 27.269531 82.632813 63.441406 103.9375 15.644532 9.230469 34.292969 15.382813 58.691406 19.359375 18.230469 2.96875 36.925782 4.472656 55.554688 4.472656 17.558594 0 34.453125-1.34375 50.210938-3.984374 40.65625-6.828126 71.792968-21.671876 92.546874-44.121094 17.570313-18.988282 28.113282-46.140625 32.230469-83.003906 2.78125-24.914063 5.449219-51.316407 4.875-76.164063zm0 0" fill="#bfc7d8"/><path d="m312.417969 221.929688-2.320313-.636719-1.125 2.125c-4.171875 7.878906-8.335937 16.109375-12.371094 24.460937l-1.3125 2.71875 2.730469 1.296875c7.75 3.675781 15.878907 7.792969 22.5625 14.054688 8.226563 7.722656 12.445313 17.753906 11.277344 26.835937-.75 5.867188-3.78125 11.84375-8.761719 17.273438-.257812.277344-.519531.546875-.785156.816406l-.289062.292969 3.128906 4.929687c11.492187-3.976562 19.605468-8.023437 26.296875-13.128906 10.648437-8.109375 17.136719-19.046875 17.800781-30.003906 1.847656-30.660156-26.222656-42.648438-56.832031-51.035156zm0 0" fill="#939baa"/><path d="m196.277344 205.601562c-10.03125 0-20.160156.378907-30.097656 1.128907-47.964844 3.613281-91.0625 16.089843-128.097657 37.082031-7.179687 4.074219-15.351562 9.171875-21.527343 16.097656-6.375 7.152344-9.847657 15.769532-9.539063 23.640625.042969 1.089844.171875 2.242188.382813 3.429688l.097656.546875.289062.472656c.136719.226562.292969.59375.28125 1.050781v.0625l-.070312.53125.1875.617188c2.324218 7.667969 7.902344 14.761719 15.707031 19.976562 8.160156 5.449219 17.921875 8.453125 25.515625 10.464844l2.796875-5.113281c-4.917969-4.507813-8.742187-9.648438-10.769531-14.472656-4.292969-10.285157-3.554688-22.683594 1.933594-32.367188 8.117187-14.359375 24.8125-21.503906 38.453124-26.125 29.273438-9.917969 60.011719-14.945312 91.359376-14.945312 29.550781 0 58.613281 4.484374 86.453124 13.355468-.035156-.007812-.070312-.019531-.078124-.019531-.007813 0-.003907.003906.003906.007813l2.636718 1.632812 1.542969-2.691406c1.492188-2.605469 2.976563-5.207032 4.441407-7.800782 2.539062-4.507812 5.199218-9.316406 8.140624-14.703124l1.96875-3.605469-4.039062-.777344c-25.859375-4.964844-52.089844-7.476563-77.972656-7.476563zm0 0" fill="#939baa"/><g fill="#c67045"><path d="m201.117188 267.460938c8.3125 9.304687 18.171874 16.828124 29.300781 22.367187l2.402343 1.195313 1.851563-2.871094c6.429687-10.203125 12.316406-19.785156 17.996094-29.300782l3.355469-5.617187-58.503907 10.199219zm0 0"/><path d="m205.054688 337.6875 7.902343-.457031c8.148438-.476563 16.460938-1.179688 24.707031-2.09375l5.960938-.664063-17.054688-18.175781zm0 0"/><path d="m170.929688 259.984375 68.679687-24.71875-10.601563-2.105469c-18.300781-3.632812-37.101562-5.476562-55.871093-5.476562-31.335938 0-62.058594 5.027344-91.316407 14.9375-13.640624 4.621094-30.339843 11.765625-38.457031 26.121094-5.488281 9.699218-6.226562 22.101562-1.925781 32.367187 4.007812 9.609375 15.070312 20 25.175781 23.65625l.183594.0625.1875.042969c12.726563 2.816406 25.558594 5.207031 38.144531 7.105468l2.757813.417969 8.488281-37.613281 66.339844-1.527344zm0 0"/><path d="m189.023438 314.816406-26.011719-8.675781-31.96875 29.179687 6.78125.613282c15.664062 1.414062 31.359375 2.132812 46.652343 2.132812l3.113282-.007812.667968-2.074219c.570313-1.761719 1.945313-3.675781 4.09375-5.6875 2.789063-2.628906 5.460938-5.476563 4.878907-8.859375-.625-3.652344-4.714844-5.457031-8.207031-6.621094zm0 0"/></g><path d="m188.046875 332.121094c.742187-1.050782 1.695313-2.117188 2.910156-3.269532.988281-.929687 2.121094-2.035156 2.929688-3.097656l3.460937-4.550781-4.96875-2.824219c-.964844-.550781-2.234375-1.078125-3.992187-1.667968l-24.898438-8.304688-31.722656 28.953125-2.238281-.234375c-6.074219-.640625-12.359375-1.414062-18.683594-2.289062l-5.382812-.75 9.304687-41.273438 65.140625-1.488281-11.527344-32.542969 68.722656-24.742188 1.539063-.84375 1.910156.449219c6.410157 1.535157 12.835938 3.316407 19.074219 5.292969l5.941406 1.878906-3.125 5.394532c-1.347656 2.324218-2.707031 4.65625-4.09375 7l-1.582031 2.671874-2.976563-.226562-52.953124 9.222656 7.210937 6.847656c6.828125 6.480469 14.515625 11.898438 22.851563 16.101563l4.625 2.332031-2.496094 4.542969c-.648438 1.175781-1.132813 2.226563-1.445313 3.117187l-1.707031 4.859376 4.902344 1.5625c.882812.28125 1.964844.492187 3.304687.644531l.117188.011719c.980469.085937 4.761719.175781 10.996093.175781 2.082032 0 4.128907-.007813 5.839844-.027344 4.695313-.050781 9.074219-.09375 11.839844-.28125l3.179688-.21875 1.144531-2.976563c6.347656-16.53125 13.40625-33.054687 20.984375-49.109374l2.140625-4.527344 4.523437 2.140625c7.558594 3.582031 16.199219 7.941406 23.097656 14.410156 8.707032 8.175781 13.15625 18.851563 11.902344 28.558594-1.019531 7.953125-5.609375 14.382812-9.28125 18.375-3.773437 4.109375-8.175781 7.503906-12.363281 10.554687l-.710937.519532-.839844.242187c-20.832032 6.058594-42.792969 10.59375-65.277344 13.488281l-2.53125.324219-16.324219-17.371094-20.539062 20.417969-1.949219.074219c-4.304688.167969-8.167969.28125-11.8125.34375l-9.886719.175781zm0 0" fill="#ffeac0"/><path d="m369.125 133.636719c19.753906-27.445313 40.179688-55.820313 50.375-88.765625 2.792969-9.035156 5.714844-22.285156-1.1875-33-6.125-9.507813-18.859375-13.992188-30.96875-10.902344-9.605469 2.449219-18.539062 9.351562-25.160156 19.433594-5.378906 8.1875-8.707032 17.3125-11.921875 26.136718l-.410157 1.121094c-8.222656 22.523438-17.230468 45.125-26.78125 67.179688-13.46875 31.117187-28.382812 61.945312-44.433593 91.976562-37.625-7.503906-75.617188-9.894531-112.988281-7.0625-49.007813 3.691406-93.085938 16.46875-131.011719 37.972656-7.691407 4.363282-16.472657 9.855469-23.308594 17.527344-7.679687 8.617188-11.691406 18.765625-11.3007812 28.578125.0898442 2.28125.4296872 4.558594.9960942 6.804688-.804688 28.914062-1.507813 58.753906 4.105468 87.925781 6.933594 36.058594 28.582032 86.152344 66.757813 108.652344 16.445312 9.691406 35.867187 16.117187 61.121093 20.226562 18.671876 3.039063 37.882813 4.558594 56.683594 4.558594 17.765625 0 35.160156-1.355469 51.371094-4.078125 42.207031-7.082031 74.683594-22.644531 96.527344-46.265625 18.625-20.136719 29.761718-48.589844 34.042968-86.984375 3.664063-32.832031 6.71875-64.804687 3.90625-94.992187-.019531-.183594-.070312-.351563-.105468-.527344.40625-1.910156.6875-3.832032.804687-5.757813 2.324219-38.5-35.890625-51.058593-59.730469-57.609375 12.222657-22.253906 25.632813-43.851562 40.175782-64.683594 4.070312-5.832031 8.328125-11.746093 12.441406-17.464843zm-359.109375 149.796875c-.28125-7.105469 2.914063-14.949219 8.773437-21.527344 5.871094-6.585938 13.796876-11.519531 20.777344-15.480469 36.632813-20.773437 79.304688-33.121093 126.832032-36.699219 35.476562-2.683593 71.535156-.566406 107.289062 6.296876-2.679688 4.914062-5.386719 9.800781-8.125 14.664062-.738281 1.3125-1.503906 2.605469-2.253906 3.910156-49.863282-15.636718-103.242188-18.515625-154.5-8.292968-32.238282 6.425781-53.226563 17.492187-66.046875 34.824218-4.675781 6.316406-10.109375 16.296875-9.433594 27.941406.601563 10.464844 6.277344 20.898438 16.558594 30.660157-1.867188-.605469-3.632813-1.332031-5.222657-2.21875-6.179687-3.441407-13.121093-5.773438-19.113281-9.773438-7.285156-4.867187-12.40625-11.445312-14.496093-18.339843.003906-.085938.007812-.167969.007812-.25.027344-.988282-.242188-1.910157-.714844-2.699219-.171875-1.003907-.292968-2.011719-.332031-3.015625zm223.433594-.585938c-5.992188-5.257812-12.550781-9.855468-19.550781-13.675781-.816407-.445313-1.644532-.886719-2.472657-1.324219-.835937-.441406-1.65625-.875-2.460937-1.316406 12.753906-2.003906 25.609375-3.828125 38.40625-5.46875-2.230469 3.535156-4.476563 7.0625-6.75 10.574219-2.410156 3.730469-4.808594 7.464843-7.171875 11.210937zm20.660156-32.671875c-.164063.003907-.328125-.011719-.496094.011719-18.214843 2.234375-36.644531 4.875-54.765625 7.839844-3.742187.609375-5.074218 2.886718-5.535156 4.1875-.410156 1.164062-1.023438 4.1875 2.113281 7.089844 3.476563 3.226562 7.464844 5.339843 11.324219 7.382812.789062.417969 1.574219.835938 2.355469 1.261719 6.804687 3.714843 13.144531 8.234375 18.890625 13.4375-2.210938 3.777343-3.578125 7.710937-1.238282 12.117187 2.257813 4.246094 6.15625 5.824219 10.761719 6.347656 1.414063.160157 6.644531.21875 11.675781.21875 2.101563 0 4.164063-.007812 5.902344-.027343 15.167969-.144531 18.640625-.179688 19.824219-4.21875 5.242187-17.882813 14.933594-34.191407 22.277344-51.097657 3.886719 1.527344 7.726562 3.234376 11.445312 5.109376 3.191407 1.609374 6.871094 3.613281 9.957031 6.238281 7.222657 6.148437 11.152344 15.964843 10.25 25.617187-.882812 9.441406-6.488281 18.585938-14.628906 23.867188-.734375.476562-1.28125 1.125-1.667968 1.84375-6.710938 1.859375-13.546876 3.46875-20.378907 5.203125-14.996093 3.804687-30.226562 6.851562-45.648437 8.273437-.199219.019532-.398438.03125-.597656.050782-6.066407-5.082032-11.949219-10.496094-17.492188-16.121094-.929688-.945313-2.199219-1.484375-3.523438-1.492188-1.3125-.003906-2.605468.507813-3.546874 1.4375-5.953126 5.867188-11.542969 12.1875-16.679688 18.785156-3.695312.132813-7.390625.230469-11.089844.304688 3.054688-3.976562 6.253906-7.851562 9.605469-11.550781 1.160156-1.277344 1.574219-3.066407 1.101563-4.726563-.472657-1.660156-1.769532-2.960937-3.429688-3.4375l-35.074219-10.046875c-.328125-.09375-.914062-.265625-1.160156-.378906-.945313-.875-2.175781-1.375-3.488281-1.324219-1.34375.027344-2.621094.59375-3.542969 1.574219l-26.785156 28.480469c-6.546875-.617188-13.054688-1.472656-19.507813-2.644532l4.027344-32.46875c21.453125 1.027344 43.085938.164063 64.367188-2.570312 1.472656-.1875 2.78125-1.019531 3.582031-2.269531.796875-1.25.996093-2.789063.546875-4.203125-3.042969-9.566406-6.792969-18.964844-11.175782-28.015625 22.105469-6.011719 44.054688-13.304688 65.328126-21.714844.230468-.089844.4375-.210937.644531-.332031 6.554687 1.527344 13.058593 3.277344 19.507812 5.246094-1.335937 2.242187-2.675781 4.484374-4.035156 6.714843zm-22.109375 81.886719c-4.640625.335938-9.289062.625-13.9375.875 2.210938-2.574219 4.492188-5.09375 6.84375-7.539062 2.316406 2.261718 4.6875 4.484374 7.09375 6.664062zm-41.425781-10.484375c-3.347657 4.011719-6.527344 8.171875-9.535157 12.425781-.003906 0-.007812 0-.011718 0-12.414063.046875-24.917969.019532-37.359375-.636718l18.691406-19.875c.242187.074218.46875.136718.679687.199218zm-121.925781 1.207031c-.355469-.785156-.902344-1.496094-1.660157-2.027344-10.371093-7.273437-22.898437-18.773437-23.675781-32.261718-.390625-6.757813 2.269531-14.367188 7.488281-21.421875 11.253907-15.210938 30.308594-25.050781 59.960938-30.964844 36.152343-7.207031 73.386719-7.691406 109.605469-1.566406-18.429688 6.765625-37.269532 12.6875-56.199219 17.632812-1.472657.382813-2.691407 1.417969-3.308594 2.8125-.617187 1.390625-.566406 2.988281.140625 4.335938 4.398438 8.4375 8.21875 17.238281 11.382812 26.230469-20.261718 2.25-40.792968 2.765624-61.125 1.523437-2.628906-.15625-4.941406 1.757813-5.265624 4.378906l-4.558594 36.738281c-3.730469-.539062-7.464844-1.050781-11.183594-1.71875-7.222656-1.296874-14.335938-2.964843-21.601562-3.691406zm293.046874 50.777344c-4.039062 36.191406-14.328124 62.789062-31.449218 81.304688-20.304688 21.953124-50.867188 36.488281-90.839844 43.191406-32.316406 5.421875-69.53125 5.25-104.792969-.488282-23.992187-3.902343-42.3125-9.933593-57.652343-18.972656-35.304688-20.808594-55.472657-67.910156-62.015626-101.925781-4.328124-22.503906-4.746093-45.757813-4.335937-68.695313 2.695313 2.972657 5.835937 5.703126 9.390625 8.078126 10.363281 6.921874 22.382812 10.199218 33.808594 12.964843 44.230468 10.707031 88.109375 16.050781 130.613281 16.050781 47.449219-.003906 93.183594-6.664062 135.714844-19.964843 12.160156-3.804688 24.886719-8.445313 35.558593-16.574219 4.214844-3.207031 7.847657-6.832031 10.855469-10.726562.566407 24.230468-1.949219 49.707031-4.855469 75.757812zm4.558594-100.777344c-.609375 10.085938-6.664062 20.214844-16.617187 27.792969-5.308594 4.042969-10.941407 7.207031-16.796875 9.808594 3.289062-5.378907 5.375-11.460938 5.964844-17.765625 1.203124-12.84375-4.058594-25.9375-13.722657-34.164063-3.890625-3.308593-8.214843-5.671875-11.933593-7.550781-3.964844-2-8.0625-3.824219-12.207032-5.457031 3.554688-8.785157 8.839844-21.117188 10.6875-20.625 27.738282 7.597656 56.40625 18.457031 54.625 47.960937zm-99.71875 26.964844c-6.804687.394531-25.296875.421875-27.882812.164062-1.15625-.132812-1.90625-.3125-2.367188-.460937.546875-1.628906 2.425782-4.597656 3.734375-6.664063l.570313-.898437c12.492187-19.816406 23.507812-38.230469 33.683594-56.292969 3.675781-6.527344 7.277343-13.113281 10.847656-19.722656.566406-.613281.992187-1.367188 1.199218-2.234375 16.613282-30.941406 32.03125-62.730469 45.925782-94.828125 9.625-22.234375 18.710937-45.019531 26.996094-67.722656l.410156-1.125c3.023437-8.289063 6.148437-16.859375 10.886718-24.074219 5.25-7.992187 12.09375-13.398437 19.273438-15.234375 7.875-2.007812 16.324219.78125 20.09375 6.632812 3.53125 5.480469 3.542969 13.308594.039062 24.628907-9.710937 31.382812-29.652343 59.085937-48.933593 85.878906-4.136719 5.746094-8.414063 11.691406-12.527344 17.578125-33.449219 47.90625-61.011719 99.832031-81.949219 154.375zm0 0"/></svg>