<svg height="512pt" viewBox="-45 0 512 512.0018" width="512pt" xmlns="http://www.w3.org/2000/svg"><path d="m369.125 133.636719c19.753906-27.445313 40.179688-55.820313 50.375-88.765625 2.792969-9.035156 5.714844-22.285156-1.1875-33-6.125-9.507813-18.859375-13.992188-30.96875-10.902344-9.605469 2.449219-18.539062 9.351562-25.160156 19.433594-5.378906 8.1875-8.707032 17.3125-11.921875 26.136718l-.410157 1.121094c-8.222656 22.523438-17.230468 45.125-26.78125 67.179688-13.46875 31.117187-28.382812 61.945312-44.433593 91.976562-37.625-7.503906-75.617188-9.894531-112.988281-7.0625-49.007813 3.691406-93.085938 16.46875-131.011719 37.972656-7.691407 4.363282-16.472657 9.855469-23.308594 17.527344-7.679687 8.617188-11.691406 18.765625-11.3007812 28.578125.0898442 2.28125.4296872 4.558594.9960942 6.804688-.804688 28.914062-1.507813 58.753906 4.105468 87.925781 6.933594 36.058594 28.582032 86.152344 66.757813 108.652344 16.445312 9.691406 35.867187 16.117187 61.121093 20.226562 18.671876 3.039063 37.882813 4.558594 56.683594 4.558594 17.765625 0 35.160156-1.355469 51.371094-4.078125 42.207031-7.082031 74.683594-22.644531 96.527344-46.265625 18.625-20.136719 29.761718-48.589844 34.042968-86.984375 3.664063-32.832031 6.71875-64.804687 3.90625-94.992187-.019531-.183594-.070312-.351563-.105468-.527344.40625-1.910156.6875-3.832032.804687-5.757813 2.324219-38.5-35.890625-51.058593-59.730469-57.609375 12.222657-22.253906 25.632813-43.851562 40.175782-64.683594 4.070312-5.832031 8.328125-11.746093 12.441406-17.464843zm-359.109375 149.796875c-.28125-7.105469 2.914063-14.949219 8.773437-21.527344 5.871094-6.585938 13.796876-11.519531 20.777344-15.480469 36.632813-20.773437 79.304688-33.121093 126.832032-36.699219 35.476562-2.683593 71.535156-.566406 107.289062 6.296876-2.679688 4.914062-5.386719 9.800781-8.125 14.664062-.738281 1.3125-1.503906 2.605469-2.253906 3.910156-49.863282-15.636718-103.242188-18.515625-154.5-8.292968-32.238282 6.425781-53.226563 17.492187-66.046875 34.824218-4.675781 6.316406-10.109375 16.296875-9.433594 27.941406.601563 10.464844 6.277344 20.898438 16.558594 30.660157-1.867188-.605469-3.632813-1.332031-5.222657-2.21875-6.179687-3.441407-13.121093-5.773438-19.113281-9.773438-7.285156-4.867187-12.40625-11.445312-14.496093-18.339843.003906-.085938.007812-.167969.007812-.25.027344-.988282-.242188-1.910157-.714844-2.699219-.171875-1.003907-.292968-2.011719-.332031-3.015625zm223.433594-.585938c-5.992188-5.257812-12.550781-9.855468-19.550781-13.675781-.816407-.445313-1.644532-.886719-2.472657-1.324219-.835937-.441406-1.65625-.875-2.460937-1.316406 12.753906-2.003906 25.609375-3.828125 38.40625-5.46875-2.230469 3.535156-4.476563 7.0625-6.75 10.574219-2.410156 3.730469-4.808594 7.464843-7.171875 11.210937zm20.660156-32.671875c-.164063.003907-.328125-.011719-.496094.011719-18.214843 2.234375-36.644531 4.875-54.765625 7.839844-3.742187.609375-5.074218 2.886718-5.535156 4.1875-.410156 1.164062-1.023438 4.1875 2.113281 7.089844 3.476563 3.226562 7.464844 5.339843 11.324219 7.382812.789062.417969 1.574219.835938 2.355469 1.261719 6.804687 3.714843 13.144531 8.234375 18.890625 13.4375-2.210938 3.777343-3.578125 7.710937-1.238282 12.117187 2.257813 4.246094 6.15625 5.824219 10.761719 6.347656 1.414063.160157 6.644531.21875 11.675781.21875 2.101563 0 4.164063-.007812 5.902344-.027343 15.167969-.144531 18.640625-.179688 19.824219-4.21875 5.242187-17.882813 14.933594-34.191407 22.277344-51.097657 3.886719 1.527344 7.726562 3.234376 11.445312 5.109376 3.191407 1.609374 6.871094 3.613281 9.957031 6.238281 7.222657 6.148437 11.152344 15.964843 10.25 25.617187-.882812 9.441406-6.488281 18.585938-14.628906 23.867188-.734375.476562-1.28125 1.125-1.667968 1.84375-6.710938 1.859375-13.546876 3.46875-20.378907 5.203125-14.996093 3.804687-30.226562 6.851562-45.648437 8.273437-.199219.019532-.398438.03125-.597656.050782-6.066407-5.082032-11.949219-10.496094-17.492188-16.121094-.929688-.945313-2.199219-1.484375-3.523438-1.492188-1.3125-.003906-2.605468.507813-3.546874 1.4375-5.953126 5.867188-11.542969 12.1875-16.679688 18.785156-3.695312.132813-7.390625.230469-11.089844.304688 3.054688-3.976562 6.253906-7.851562 9.605469-11.550781 1.160156-1.277344 1.574219-3.066407 1.101563-4.726563-.472657-1.660156-1.769532-2.960937-3.429688-3.4375l-35.074219-10.046875c-.328125-.09375-.914062-.265625-1.160156-.378906-.945313-.875-2.175781-1.375-3.488281-1.324219-1.34375.027344-2.621094.59375-3.542969 1.574219l-26.785156 28.480469c-6.546875-.617188-13.054688-1.472656-19.507813-2.644532l4.027344-32.46875c21.453125 1.027344 43.085938.164063 64.367188-2.570312 1.472656-.1875 2.78125-1.019531 3.582031-2.269531.796875-1.25.996093-2.789063.546875-4.203125-3.042969-9.566406-6.792969-18.964844-11.175782-28.015625 22.105469-6.011719 44.054688-13.304688 65.328126-21.714844.230468-.089844.4375-.210937.644531-.332031 6.554687 1.527344 13.058593 3.277344 19.507812 5.246094-1.335937 2.242187-2.675781 4.484374-4.035156 6.714843zm-22.109375 81.886719c-4.640625.335938-9.289062.625-13.9375.875 2.210938-2.574219 4.492188-5.09375 6.84375-7.539062 2.316406 2.261718 4.6875 4.484374 7.09375 6.664062zm-41.425781-10.484375c-3.347657 4.011719-6.527344 8.171875-9.535157 12.425781-.003906 0-.007812 0-.011718 0-12.414063.046875-24.917969.019532-37.359375-.636718l18.691406-19.875c.242187.074218.46875.136718.679687.199218zm-121.925781 1.207031c-.355469-.785156-.902344-1.496094-1.660157-2.027344-10.371093-7.273437-22.898437-18.773437-23.675781-32.261718-.390625-6.757813 2.269531-14.367188 7.488281-21.421875 11.253907-15.210938 30.308594-25.050781 59.960938-30.964844 36.152343-7.207031 73.386719-7.691406 109.605469-1.566406-18.429688 6.765625-37.269532 12.6875-56.199219 17.632812-1.472657.382813-2.691407 1.417969-3.308594 2.8125-.617187 1.390625-.566406 2.988281.140625 4.335938 4.398438 8.4375 8.21875 17.238281 11.382812 26.230469-20.261718 2.25-40.792968 2.765624-61.125 1.523437-2.628906-.15625-4.941406 1.757813-5.265624 4.378906l-4.558594 36.738281c-3.730469-.539062-7.464844-1.050781-11.183594-1.71875-7.222656-1.296874-14.335938-2.964843-21.601562-3.691406zm293.046874 50.777344c-4.039062 36.191406-14.328124 62.789062-31.449218 81.304688-20.304688 21.953124-50.867188 36.488281-90.839844 43.191406-32.316406 5.421875-69.53125 5.25-104.792969-.488282-23.992187-3.902343-42.3125-9.933593-57.652343-18.972656-35.304688-20.808594-55.472657-67.910156-62.015626-101.925781-4.328124-22.503906-4.746093-45.757813-4.335937-68.695313 2.695313 2.972657 5.835937 5.703126 9.390625 8.078126 10.363281 6.921874 22.382812 10.199218 33.808594 12.964843 44.230468 10.707031 88.109375 16.050781 130.613281 16.050781 47.449219-.003906 93.183594-6.664062 135.714844-19.964843 12.160156-3.804688 24.886719-8.445313 35.558593-16.574219 4.214844-3.207031 7.847657-6.832031 10.855469-10.726562.566407 24.230468-1.949219 49.707031-4.855469 75.757812zm4.558594-100.777344c-.609375 10.085938-6.664062 20.214844-16.617187 27.792969-5.308594 4.042969-10.941407 7.207031-16.796875 9.808594 3.289062-5.378907 5.375-11.460938 5.964844-17.765625 1.203124-12.84375-4.058594-25.9375-13.722657-34.164063-3.890625-3.308593-8.214843-5.671875-11.933593-7.550781-3.964844-2-8.0625-3.824219-12.207032-5.457031 3.554688-8.785157 8.839844-21.117188 10.6875-20.625 27.738282 7.597656 56.40625 18.457031 54.625 47.960937zm-99.71875 26.964844c-6.804687.394531-25.296875.421875-27.882812.164062-1.15625-.132812-1.90625-.3125-2.367188-.460937.546875-1.628906 2.425782-4.597656 3.734375-6.664063l.570313-.898437c12.492187-19.816406 23.507812-38.230469 33.683594-56.292969 3.675781-6.527344 7.277343-13.113281 10.847656-19.722656.566406-.613281.992187-1.367188 1.199218-2.234375 16.613282-30.941406 32.03125-62.730469 45.925782-94.828125 9.625-22.234375 18.710937-45.019531 26.996094-67.722656l.410156-1.125c3.023437-8.289063 6.148437-16.859375 10.886718-24.074219 5.25-7.992187 12.09375-13.398437 19.273438-15.234375 7.875-2.007812 16.324219.78125 20.09375 6.632812 3.53125 5.480469 3.542969 13.308594.039062 24.628907-9.710937 31.382812-29.652343 59.085937-48.933593 85.878906-4.136719 5.746094-8.414063 11.691406-12.527344 17.578125-33.449219 47.90625-61.011719 99.832031-81.949219 154.375zm0 0"/></svg>