<svg height="512" viewBox="0 0 512 512" width="512" xmlns="http://www.w3.org/2000/svg"><g id="Flat"><rect fill="#e05114" height="101.823" rx="50.912" transform="matrix(.707 -.707 .707 .707 -106.039 256)" width="463.862" x="24.069" y="205.088"/><path d="m459.716 268.284-191.432 191.432a96.567 96.567 0 0 1 -68.284 28.284 96.567 96.567 0 0 1 -68.284-28.284l-3.716-3.716 328-328 3.716 3.716a96.567 96.567 0 0 1 28.284 68.284 96.567 96.567 0 0 1 -28.284 68.284z" fill="#f5a12c"/><path d="m52.284 243.716 191.432-191.432a96.567 96.567 0 0 1 68.284-28.284 96.567 96.567 0 0 1 68.284 28.284l3.716 3.716-328 328-3.716-3.716a96.567 96.567 0 0 1 -28.284-68.284 96.567 96.567 0 0 1 28.284-68.284z" fill="#f5a12c"/><path d="m110.585 398.585-11.313-11.313c9.017-9.018 18.906-8.638 26.127-8.356 6.836.263 10.3.218 14.195-3.682s3.946-7.359 3.682-14.195c-.279-7.221-.661-17.11 8.356-26.127s18.905-8.636 26.125-8.354c6.839.265 10.294.218 14.193-3.68s3.946-7.358 3.681-14.194c-.279-7.221-.661-17.11 8.356-26.126s18.906-8.633 26.127-8.356c6.832.262 10.294.217 14.194-3.681s3.947-7.361 3.683-14.2c-.279-7.22-.66-17.11 8.358-26.127s18.906-8.638 26.127-8.358c6.837.264 10.3.218 14.2-3.683s3.947-7.36 3.683-14.2c-.278-7.221-.66-17.11 8.358-26.127s18.906-8.638 26.128-8.358c6.838.261 10.3.217 14.2-3.684s3.948-7.362 3.685-14.2c-.278-7.221-.659-17.111 8.36-26.13s18.91-8.633 26.124-8.354c6.837.261 10.3.215 14.2-3.686l11.313 11.314c-9.02 9.019-18.911 8.635-26.129 8.36-6.842-.267-10.3-.217-14.2 3.685s-3.948 7.362-3.685 14.2c.278 7.221.659 17.111-8.36 26.13s-18.905 8.634-26.128 8.357c-6.836-.264-10.3-.217-14.2 3.684s-3.946 7.36-3.683 14.2c.279 7.221.66 17.11-8.357 26.128s-18.909 8.633-26.128 8.357c-6.836-.264-10.3-.217-14.2 3.683s-3.947 7.361-3.683 14.2c.279 7.22.66 17.109-8.357 26.127s-18.907 8.636-26.126 8.355c-6.836-.263-10.3-.218-14.2 3.682s-3.945 7.358-3.681 14.195c.279 7.22.662 17.109-8.355 26.126s-18.908 8.634-26.125 8.354c-6.839-.263-10.3-.218-14.193 3.68s-3.946 7.359-3.682 14.195c.279 7.221.661 17.11-8.356 26.127s-18.899 8.632-26.118 8.347c-6.838-.259-10.296-.214-14.196 3.685z" fill="#fadd5c"/></g></svg>