<svg height="512" viewBox="0 0 512 512" width="512" xmlns="http://www.w3.org/2000/svg"><g id="Flat"><path d="m488 224.01a135.889 135.889 0 0 1 -135.99 135.99h-64.02a135.985 135.985 0 0 1 -66.04-254.86l39.08-21.71a67.749 67.749 0 0 0 22.49-20.18c1.1-1.54 2.13-3.14 3.09-4.77a67.926 67.926 0 0 0 9.39-34.48h48a68.012 68.012 0 0 0 34.97 59.43l39.08 21.71a135.956 135.956 0 0 1 69.95 118.87z" fill="#f5a12c"/><path d="m399.42 100.41-29.78-22.22a51.346 51.346 0 0 1 -13.16-14.94c-6.48-10.85-10.19-24.65-10.19-39.25h-52.58c0 14.6-3.71 28.4-10.19 39.25a51.346 51.346 0 0 1 -13.16 14.94l-29.78 22.22c-34.9 26.04-56.58 75.19-56.58 128.26 0 38.95 11.36 75.65 31.98 103.35a130.458 130.458 0 0 0 12.14 14.13 135.493 135.493 0 0 0 59.87 13.85h64.02a135.493 135.493 0 0 0 59.87-13.85 130.458 130.458 0 0 0 12.14-14.13c20.62-27.7 31.98-64.4 31.98-103.35 0-53.07-21.68-102.22-56.58-128.26zm-199.42 128.26c0-47.94 19.16-92.01 50-115.03l19.27-14.37-2.04 2.43c-21.73 25.94-35.23 74.6-35.23 126.97 0 52.69 13 98.09 33 124.08-37.75-17.52-65-66.53-65-124.08zm66.19 94.87c-11.73-25.21-18.19-58.9-18.19-94.87 0-48.64 12.02-93.21 31.38-116.31l18.62-22.23c.31-.37.61-.78.92-1.18l-5.16 15.42c-8.49 25.33-13.76 72.95-13.76 124.3 0 37.66 2.74 73.15 7.73 99.92 2.25 12.11 4.77 21.73 7.66 29.06-10.64-4.47-20.94-16.35-29.2-34.11zm71.35-3.6c-5.16 31-10.93 38.34-12.29 39.69h-10.5c-1.36-1.35-7.13-8.69-12.29-39.69-4.16-25.07-6.46-57.48-6.46-91.27 0-49.66 4.94-95.26 12.89-118.99l7.45-22.22a104.891 104.891 0 0 0 3.66-15.56 104.891 104.891 0 0 0 3.66 15.56l7.45 22.22c7.95 23.73 12.89 69.33 12.89 118.99 0 33.79-2.3 66.2-6.46 91.27zm7.07 37.71c2.89-7.33 5.41-16.95 7.66-29.06 4.99-26.77 7.73-62.26 7.73-99.92 0-51.35-5.27-98.97-13.76-124.3l-5.16-15.42c.31.4.61.81.92 1.18l18.62 22.23c19.36 23.1 31.38 67.67 31.38 116.31 0 35.97-6.46 69.66-18.19 94.87-8.26 17.76-18.56 29.64-29.2 34.11zm30.39-4.9c20-25.99 33-71.39 33-124.08 0-52.37-13.5-101.03-35.23-126.97l-2.04-2.43 19.27 14.37c30.84 23.02 50 67.09 50 115.03 0 57.55-27.25 106.56-65 124.08z" fill="#e68f15"/><circle cx="168" cy="344" fill="#dedede" r="144"/><g fill="#cacaca"><path d="m168 456a112 112 0 1 1 112-112 112.127 112.127 0 0 1 -112 112zm0-208a96 96 0 1 0 96 96 96.108 96.108 0 0 0 -96-96z"/><path d="m168 416a72 72 0 1 1 72-72 72.081 72.081 0 0 1 -72 72zm0-128a56 56 0 1 0 56 56 56.063 56.063 0 0 0 -56-56z"/><path d="m168 376a32 32 0 1 1 32-32 32.036 32.036 0 0 1 -32 32zm0-48a16 16 0 1 0 16 16 16.019 16.019 0 0 0 -16-16z"/></g></g></svg>